#!OML:ASF G:\JayActor3\Patient Classification 1\Patient 1\Session 6\male.ASF
:FULLY-SPECIFIED
:DEGREES
825
root 5.82311 16.0903 -23.0007 200.966 -45.535 -176.936
lowerback 30.3511 -1.83725 2.55701
upperback 8.25905 -2.832 0.41129
thorax -7.39841 -1.87549 0.0550122
lowerneck 5.55655 0.209763 3.44595
upperneck -4.8365 0.549565 0.244798
head -2.48442 0.19077 -0.536605
rclavicle 5.52621e-014 -1.19271e-014
rhumerus -29.9986 12.6759 -88.5532
rradius 56.1471
rwrist 0.567876
rhand -17.5459 -4.91957
rfingers 7.12502
rthumb 8.70861 -34.7199
lclavicle 5.52621e-014 -1.19271e-014
lhumerus -33.4413 -13.7201 87.5186
lradius 44.1391
lwrist 26.3553
lhand -17.0892 6.14737
lfingers 7.12502
lthumb 9.14925 35.9289
rfemur -58.1774 10.4739 18.3118
rtibia 46.3116
rfoot -11.1199 -9.48455
rtoes 8.26744
lfemur -51.3215 5.04685 -22.9361
ltibia 43.2946
lfoot -13.3151 2.17426
ltoes 1.44721
826
root 5.8154 16.0919 -23.0136 201.007 -45.5596 -176.912
lowerback 30.3539 -1.85023 2.57205
upperback 8.257 -2.84334 0.407596
thorax -7.40302 -1.88052 0.0464318
lowerneck 5.58654 0.202382 3.41789
upperneck -4.85382 0.540829 0.279371
head -2.49591 0.185497 -0.52058
rclavicle 3.10104e-014 -3.57812e-014
rhumerus -30.0235 12.7068 -88.5461
rradius 56.1284
rwrist 0.481892
rhand -17.5354 -4.90623
rfingers 7.12502
rthumb 8.71869 -34.7062
lclavicle 3.10104e-014 -3.57812e-014
lhumerus -33.4393 -13.7 87.5392
lradius 44.2287
lwrist 26.305
lhand -17.2489 6.12196
lfingers 7.12502
lthumb 8.9952 35.9102
rfemur -58.1626 10.4661 18.3577
rtibia 46.2907
rfoot -11.2049 -9.49073
rtoes 8.2648
lfemur -51.3019 4.95121 -22.8558
ltibia 43.2769
lfoot -13.4393 2.32184
ltoes 1.36095
827
root 5.80794 16.0934 -23.0263 201.031 -45.5818 -176.868
lowerback 30.3538 -1.85865 2.60587
upperback 8.26014 -2.84458 0.403089
thorax -7.40079 -1.88123 0.0222618
lowerneck 5.61191 0.189004 3.40524
upperneck -4.88423 0.524807 0.307233
head -2.51106 0.176293 -0.509116
rclavicle 6.67916e-014 2.14687e-014
rhumerus -30.0414 12.735 -88.5429
rradius 56.1114
rwrist 0.410607
rhand -17.5175 -4.93964
rfingers 7.12502
rthumb 8.73593 -34.7389
lclavicle 6.67916e-014 2.14687e-014
lhumerus -33.4287 -13.7032 87.5558
lradius 44.3087
lwrist 26.2299
lhand -17.4175 6.10626
lfingers 7.12502
lthumb 8.83252 35.9014
rfemur -58.1364 10.4533 18.4261
rtibia 46.2568
rfoot -11.2888 -9.48764
rtoes 8.29303
lfemur -51.288 4.86586 -22.763
ltibia 43.2703
lfoot -13.5549 2.46071
ltoes 1.28637
828
root 5.8009 16.0949 -23.0389 201.045 -45.6039 -176.817
lowerback 30.354 -1.86607 2.63612
upperback 8.26566 -2.84541 0.407351
thorax -7.39538 -1.88198 0.00973982
lowerneck 5.63816 0.182731 3.37739
upperneck -4.93008 0.517329 0.335856
head -2.5314 0.17137 -0.495167
rclavicle 2.14687e-014 -5.52621e-014
rhumerus -30.0544 12.7926 -88.5324
rradius 56.0944
rwrist 0.338464
rhand -17.493 -4.97542
rfingers 7.12502
rthumb 8.75964 -34.7736
lclavicle 2.14687e-014 -5.52621e-014
lhumerus -33.4181 -13.6849 87.5762
lradius 44.3804
lwrist 26.1318
lhand -17.5667 6.09445
lfingers 7.12502
lthumb 8.68846 35.8956
rfemur -58.1018 10.4341 18.505
rtibia 46.2155
rfoot -11.3729 -9.47602
rtoes 8.3484
lfemur -51.2781 4.78645 -22.6674
ltibia 43.2714
lfoot -13.6564 2.58704
ltoes 1.24801
829
root 5.79445 16.0964 -23.0511 201.061 -45.6226 -176.766
lowerback 30.3533 -1.86899 2.65834
upperback 8.27338 -2.84304 0.415701
thorax -7.38651 -1.88135 0.00515991
lowerneck 5.67293 0.181971 3.34437
upperneck -4.99472 0.517303 0.363964
head -2.55952 0.169948 -0.480883
rclavicle 7.27552e-014 -8.15017e-014
rhumerus -30.0689 12.8559 -88.5213
rradius 56.0897
rwrist 0.273131
rhand -17.4704 -4.99299
rfingers 7.12502
rthumb 8.78142 -34.7903
lclavicle 7.27552e-014 -8.15017e-014
lhumerus -33.4027 -13.6631 87.5943
lradius 44.4409
lwrist 26.0278
lhand -17.6806 6.09032
lfingers 7.12502
lthumb 8.57858 35.896
rfemur -58.0683 10.4108 18.5864
rtibia 46.1709
rfoot -11.4524 -9.45436
rtoes 8.41014
lfemur -51.2758 4.71102 -22.5723
ltibia 43.2763
lfoot -13.7424 2.70424
ltoes 1.21794
830
root 5.78883 16.098 -23.0629 201.083 -45.6385 -176.716
lowerback 30.3479 -1.8646 2.67933
upperback 8.2836 -2.8325 0.420897
thorax -7.37248 -1.8769 -0.00543955
lowerneck 5.69727 0.1791 3.34182
upperneck -5.06496 0.515863 0.383353
head -2.58766 0.167346 -0.47457
rclavicle -3.65764e-014 2.5842e-014
rhumerus -30.0794 12.8925 -88.5146
rradius 56.0865
rwrist 0.224635
rhand -17.4458 -4.99132
rfingers 7.12502
rthumb 8.80518 -34.7876
lclavicle -3.65764e-014 2.5842e-014
lhumerus -33.3775 -13.6529 87.6021
lradius 44.4862
lwrist 25.9262
lhand -17.7435 6.09401
lfingers 7.12502
lthumb 8.51786 35.9022
rfemur -58.0444 10.3828 18.6664
rtibia 46.1273
rfoot -11.5228 -9.42216
rtoes 8.47584
lfemur -51.2835 4.63734 -22.4789
ltibia 43.279
lfoot -13.8126 2.81588
ltoes 1.16396
831
root 5.78393 16.0998 -23.0743 201.114 -45.6534 -176.673
lowerback 30.3437 -1.86284 2.67618
upperback 8.28694 -2.83005 0.438216
thorax -7.36562 -1.87583 0.014541
lowerneck 5.74499 0.190328 3.31946
upperneck -5.14233 0.532119 0.388932
head -2.62229 0.174359 -0.470103
rclavicle 2.22639e-014 -3.1408e-014
rhumerus -30.107 12.9623 -88.5036
rradius 56.1002
rwrist 0.193286
rhand -17.4279 -5.00661
rfingers 7.12502
rthumb 8.82245 -34.8022
lclavicle 2.22639e-014 -3.1408e-014
lhumerus -33.362 -13.5913 87.6163
lradius 44.5149
lwrist 25.8387
lhand -17.7718 6.10419
lfingers 7.12502
lthumb 8.49059 35.9135
rfemur -58.0309 10.3497 18.7407
rtibia 46.087
rfoot -11.5851 -9.38103
rtoes 8.5372
lfemur -51.2968 4.56105 -22.3882
ltibia 43.2747
lfoot -13.869 2.92146
ltoes 1.11088
